<svg width="24" height="27" viewBox="0 0 24 27" fill="none" xmlns="http://www.w3.org/2000/svg">
<path d="M5.332 13.332H8V16H5.332V13.332ZM24 5.332V24C23.9997 24.3501 23.9305 24.6967 23.7963 25.0201C23.6621 25.3434 23.4655 25.6372 23.2177 25.8846C22.97 26.1319 22.6759 26.3281 22.3524 26.4618C22.0288 26.5956 21.6821 26.6643 21.332 26.664H2.668C1.188 26.664 0 25.464 0 24V5.332C0.000265037 4.62448 0.281442 3.94602 0.781732 3.44573C1.28202 2.94544 1.96048 2.66426 2.668 2.664H4V0H6.668V2.664H17.332V0H20V2.664H21.332C22.0395 2.66426 22.718 2.94544 23.2183 3.44573C23.7186 3.94602 23.9997 4.62448 24 5.332V5.332ZM2.668 8H21.332V5.332H2.668V8ZM21.332 24V10.664H2.668V24H21.332ZM16 16V13.332H18.668V16H16ZM10.668 16V13.332H13.332V16H10.668V16ZM5.332 18.664H8V21.332H5.332V18.664ZM16 21.332V18.664H18.668V21.332H16ZM10.668 21.332V18.664H13.332V21.332H10.668Z" fill="white"/>
</svg>
